<!-- TODO find a way to pass #61dafb as a prop -->
<?xml version="1.0" encoding="utf-8"?>
<svg version="1.1" xmlns="http://www.w3.org/2000/svg" xmlns:xlink="http://www.w3.org/1999/xlink" x="0px" y="0px"
	 viewBox="110 320 800 420" style="enable-background:new 0 0 1000 1000;" xml:space="preserve">
<style type="text/css">
	.st3{fill:none;stroke:currentColor;stroke-width:13;stroke-miterlimit:10;}
	.logo{fill:currentColor;}
</style>
<g class="logo">
	<path class="logo" d="M598.3,560.6c-2.5,5.3-5.3,10.2-8.4,15.1c-3.1,4.8-6.4,9.5-10,14.1c-7.2,9-15.4,17.4-24.6,24.6c-2.3,1.8-4.7,3.5-7.1,5.2
		l-3.7,2.4c-1.2,0.8-2.5,1.5-3.8,2.3c-5.1,2.9-10.5,5.5-16.1,7.6c-2.8,1.1-5.7,1.9-8.5,2.9l-4.4,1.1l-2.2,0.6l-2.2,0.4l-4.4,0.8
		l-4.5,0.6l-2.2,0.3l-2.3,0.2l-4.5,0.3c-11.6,0.4-22.9,0.3-34.3,0.3l-34.1-0.4c-22.7-0.4-45.3-0.8-67.8-0.8
		c-22.6-0.1-45.1,0.8-67.4,2.1l-33.3,2c-11,0.7-22,1.4-32.9,2.5c-5.4,0.5-10.8,1.1-16.1,1.9c-5.3,0.7-10.6,1.6-15.7,2.7
		c-5.1,1.1-10.1,2.4-14.7,4c-1.2,0.4-2.3,0.9-3.4,1.3c-1.1,0.5-2.2,0.9-3.2,1.5l-1.5,0.8c-0.5,0.3-1,0.5-1.5,0.8
		c-1,0.5-2,1.3-3,1.9c-2,1.4-4,2.9-5.8,4.4c-0.9,0.8-1.8,1.6-2.7,2.5c-0.8,0.9-1.7,1.7-2.5,2.6c-3.2,3.6-5.8,7.7-7.7,12.3
		c-1.9,4.6-3,9.6-3.4,14.9c-0.2,2.6-0.2,5.3,0,8c0.2,2.7,0.6,5.5,1.2,8.1l-2.5,1.2c-3.4-5.1-5.6-10.7-7-16.7
		c-1.3-6-1.6-12.4-0.7-18.8c0.5-3.2,1.3-6.4,2.3-9.5c0.3-0.8,0.6-1.5,0.9-2.3c0.3-0.8,0.6-1.5,1-2.3l1-2.2l1.2-2.2
		c3.2-5.8,7.3-10.9,11.9-15.4c1.2-1.1,2.3-2.2,3.7-3.3c0.7-0.5,1.3-1.1,2-1.6l2-1.5c0.7-0.5,1.4-1,2.1-1.4l2.1-1.3
		c1.4-0.8,2.8-1.7,4.2-2.4c5.7-3,11.5-5.3,17.3-7.4c5.8-2,11.6-3.6,17.4-5c5.8-1.4,11.6-2.5,17.4-3.5c23.2-3.9,46.4-4.9,69.4-4.4
		c5.8,0.1,11.5,0.3,17.2,0.5l17.2,0.8l34.2,1.9c22.8,1.3,45.4,2.9,68.1,4.6l33.9,2.7c11.3,0.8,22.5,1.6,33.6,2l4,0l2,0l2-0.1l4-0.2
		l4-0.4l2-0.2l2-0.3l3.9-0.7c2.6-0.7,5.2-1.2,7.8-2c5.2-1.5,10.2-3.5,15.1-5.8c4.9-2.3,9.7-5,14.2-8c9.2-6,17.6-13.3,25.3-21.3
		c3.8-4,7.5-8.3,10.9-12.7c3.4-4.4,6.7-9.1,9.5-13.8L598.3,560.6z"/>
	<g>
		<path d="M289.1,389c10.6,0,19.2,3.6,25.9,10.8c3,3.6,4.5,7.3,4.5,11.1v1.1c0,7.8-5.4,17.7-16.1,29.8c-6.5,6.7-11.6,11.4-15.3,14.3
			c-7.8,6.2-14.2,10.9-19,13.9c-0.1,0.1-0.4,0.1-0.9,0.2c-2.2,0-4.4-1.5-6.7-4.6c-0.4-1-0.6-1.6-0.6-1.9c0-0.9,0.9-1.8,2.8-2.8
			c6.3-4.2,13-9.3,20-15.3c5.4-4.7,9.5-8.8,12.3-12.3c3.2-3.9,5.5-7.2,7.1-10c2.9-5,4.4-9.3,4.8-12.8c-1.2-0.7-3.1-1.1-5.9-1.1
			c-9.8,0-23.1,5-40.1,15c-5.3,3.2-10.7,7-16.2,11.4c-3.1,2.1-8.6,7-16.3,14.7c-7.6,8.1-12.5,14.4-14.9,19c-4.9,8-7.4,15.2-7.4,21.6
			c0,4.3,1.6,7.8,4.8,10.7c3,2.9,6.4,5.3,10.2,7.5c12.3,7.3,20.8,12.5,25.6,15.9c10.8,8,16.2,16.3,16.2,24.9v1
			c0,8.4-7.9,16.3-23.8,23.8c-6.4,3.2-15.6,6.3-27.5,9.2c-9.7,2-17.9,3-24.5,3c-8.6,0-15.4-1.8-20.5-5.5c-7.4-5.5-11.1-10.9-11.1-16
			c0-5.4,3.3-10.2,10-14.2c0.8-0.4,1.5-0.6,2.2-0.7c1.2,0,2.9,0.9,5.1,2.8c1.2,1.4,1.8,2.5,1.8,3.4v0.7c0,0.6-1,1.4-3,2.3
			c-2.9,1.9-4.7,3.9-5.6,5.7h0.1c2,0.8,4.5,1.3,7.5,1.3c12.2,0,26.7-3.2,43.7-9.7c6.4-2.7,12-5.6,16.6-8.9c4.3-3.6,6.5-6.7,6.5-9.3
			c0-0.9-2.2-2.8-6.5-5.5c-11.2-6.4-20-12-26.6-16.8c-15.8-12.3-23.6-24.9-23.6-37.9c0-13.7,8.6-29.4,25.7-47.1
			c7.6-7.3,13.7-12.7,18.4-16c4-3,8.2-6,12.6-8.8c5.3-3.3,10.4-6.1,15.2-8.5C269.2,392,280.2,389,289.1,389z"/>
		<path d="M487.2,534.8v0.5c0,0.6-1.2,2.1-3.6,4.4c-6.7,6.9-12.4,12.4-17,16.3c-4.4,3.8-8.5,7.8-12.3,11.5c-6.1,6.1-14.4,9.7-23,10
			l-21.7,0.7c-5.8,0.2-9.8-5.6-7.7-10.9c6.6-16.9,17.8-41.2,24.4-53.8c9.2-18,15.2-30,18.1-36l0.6-2.6c-0.1,0-0.1-0.1-0.1-0.1
			c-4.7,1.6-11.2,5.4-19.5,11.2c-4.5,3.2-10.3,8.1-17.4,14.8c-4.1,4-7.2,7.2-9.6,9.8c-8.9,17.4-25.6,48.7-35.4,67.7
			c-0.5,1-1.5,1.7-2.7,1.7l-27,0.9c-2.3,0.1-3.9-2.3-3-4.4c8.6-20.1,24.3-50.7,32.5-65.9c11-21.6,18-35.4,20.8-41.2l0.7-2.8
			c-6.5,2.1-15.6,7.8-27.4,17.2c-4,3.3-9.5,8.5-16.2,15.5c-4,4.1-6,6.5-6.1,7.1c-12.8,25.1-28.5,53.5-40.3,74.3
			c-0.5,1-1.5,1.6-2.6,1.6l-31,1.1c-2.4,0.1-4-2.4-2.9-4.6c33.4-65.1,69.3-127.9,71.3-131.6c1-1.4,2.5-2.1,4.5-2.1
			c3.6,0,7.7,1.8,12.5,5.3c2.7,2.3,4.8,4.5,6.3,6.7c1.9,3,2.8,5.4,2.8,7.1v0.6c0,1.3-0.8,3.2-2.3,5.8h0.1
			c14.8-10.8,26.3-16.2,34.4-16.2c8.6,0,15.6,4.2,21.1,12.5c2.3,4.4,3.5,7.7,3.5,10.1c-0.1,1.1-0.3,2.4-0.6,3.9
			c4.5-3.7,8.9-6.9,13.2-9.5c9.9-5.9,17.8-8.9,23.7-8.9c7.9,0,14.6,3.6,19.9,10.8c3.2,4.9,4.8,9.3,4.8,13.1c0,4.6-1.9,10.3-5.8,17.3
			c-13.9,27.5-21.8,43.5-23.8,48c-1.6,3.6-2.7,6.6-3.3,8.9c5.8-3.7,13.7-10.2,23.9-19.4c4.2-4.1,8.7-8.7,13.5-13.8l0.8-0.2h0.6
			c2.6,0,5.2,1.8,7.7,5.3C486.9,533.5,487.2,534.3,487.2,534.8z"/>
		<path d="M543.7,530.8c-2.6-3.3-5.1-5-7.5-5h-0.8c-0.3,0-0.7,0.2-1,0.5c-9.3,9.6-15.9,16-19.6,19.1c-7.5,6.5-13.5,11.2-17.7,14
			l-0.2-0.1c1.2-3.3,2.6-6.6,4-9.7c4-8.1,16.3-32.4,37-73c3.6-6.6,5.4-10.4,5.4-11.4c0-3.6-2-7.5-6.1-11.8c-5.8-5.4-10.9-8-15.5-8
			c-1.9,0-3.5,0.6-4.5,1.9c-2.3,4.2-13.5,26.3-33.8,66.4c-11,20.3-16.4,34.8-16.4,43.4c0,1.5,0.3,3.3,0.8,5.5
			c3.6,9.6,9.3,14.3,17.2,14.3c9.2,0,21.9-7.1,38.3-21.2c4.4-3.7,10.6-9.6,18.7-18c2-1.9,3-3.1,3-3.8v-0.5
			C544.7,532.7,544.4,531.9,543.7,530.8z"/>
		<path d="M691.7,417.9c-1.4-1.9-3.2-3.7-5.5-5.3c-2.8-2.1,3.5-5.6-0.2-5.6l-54.5,2.4c2.8-5.4,5.7-11.1,8.6-16.9
			c0.5-0.9,1-1.8,1.3-2.5c0.8-1.6-0.4-3.4-2.2-3.5c-9.9-0.3-19.9-0.9-29.8-1.2c-1,0-1.8,0.5-2.3,1.3c-2.8,5.4-6.1,12-10,19.7
			c-0.5,1-1,2-1.5,3h-7.2c-1.6,0-3.1,1-3.8,2.4c-1.6,3.5-3.9,6.9-5.8,9.8l0,0.1c-1.8,2.7,0.2,6.4,3.5,6.4h3.8
			c-27.5,54-41.7,81.9-42.5,83.5c-11.5,21.3-17.3,36.3-17.3,44.9c0,2.4,0.3,4.5,0.9,6.4c3.6,9.2,9.2,13.8,16.8,13.8
			c8.9,0,21.2-6.6,36.6-19.8c3.8-3,10.2-9,19.1-18.1c2.9-2.8,4.3-4.5,4.3-5c0-1.2-0.5-2.4-1.4-3.6c-2.5-3-4.8-4.4-7-4.4h-0.7
			l-0.7,0.1c-5.9,6.1-10.9,11.2-15,15c-9.6,8.6-17.2,14.8-22.9,18.4h-0.2l0.8-2.2c2.7-6.8,8.3-18.2,16.7-34.4
			c3.5-6.8,19.6-38.4,48.3-94.6l55-8.1c-0.6-0.6-1.2-0.9-1.7-1.1c0,0,0.1,0,0.1,0C680.8,417.5,686.2,417.7,691.7,417.9z"/>
		<path d="M678.9,366.6h0.1c5,0,10.4,2.9,16.2,8.7c3.5,4,5.2,7.4,5.2,10.1v0.8c0,1.1-0.7,3-2.2,5.7L658,470.8h0.1
			c14.9-10.9,26.4-16.3,34.6-16.3c7.8,0,14.3,3.5,19.7,10.6c3.3,5,5,9.4,5,13.3c0,4.8-2.2,11-6.5,18.5c-16.2,32-25.3,50.3-27.3,54.7
			c-1.6,3.8-2.6,6.8-3.3,9c5.8-3.7,13.8-10.1,23.9-19.4c6.6-6.5,11.2-11,13.6-13.8l0.8-0.2h0.5c2.6,0,5.2,1.8,7.8,5.2
			c0.5,1,0.8,1.8,0.8,2.3v0.5c0,0.6-1.2,2.1-3.7,4.4c-6.7,6.9-12.3,12.4-16.9,16.3c-14,12.1-24.4,18.8-31.1,20.2
			c-0.9,0.2-1.9,0.3-3.1,0.3h-0.5c-5.8,0-11.5-3.8-17.1-11.5c-2.3-4-3.4-7.9-3.4-11.7c0-7.9,5.1-21.2,15.2-40.1
			c12.1-24.1,19.4-38.7,21.9-43.9l0.6-2.6c-0.1-0.1-0.1-0.1-0.1-0.1c-8.8,3.2-19.7,10.6-32.8,22.2c-8.2,7.8-13.8,13.4-16.6,16.9
			c-1.2,2.5-6.7,13.5-16.6,32.9c-14.2,27.8-35.4,51.5-61.6,68.6c-11.5,7.6-21.2,13.7-21.9,13.7c-5.1,0,47.2-42.1,41.1-48.3
			c-3.3-4.1-5-7.5-5-10c0-1.5,1.2-4.2,3.5-8.2c2.1-4.2,15.2-29.9,39.2-77.1l55.6-109C675.4,367.2,676.9,366.6,678.9,366.6z"/>
		<path d="M850.6,531.1c-2.7-3.5-5.4-5.3-7.9-5.3l-1.2,0.1c-6.8,6.8-11.2,11.2-13.3,13c-10.9,9.5-19.1,15.8-24.5,19h-0.2
			c18.1-35.4,30.5-59.9,37.3-73.3c0.8-1.7-0.4-3.6-2.2-3.6h-30.9c-0.8,0-1.6,0.4-2.1,1.1c-3.1,4.6-7.7,10.8-13.7,18.7
			c-7,9.5-17.6,21.6-31.9,36.3c-9.5,9.2-16.5,15.4-21.1,18.7c1-2.6,2.3-5.6,3.7-8.9c2.9-6,13.4-26.7,31.4-62.2
			c0.8-1.7-0.4-3.7-2.2-3.7h-30.2c-0.9,0-1.8,0.5-2.2,1.4c-4.2,8.2-9.1,17.9-14.8,29c-10.4,19.6-15.6,33.3-15.6,41.1
			c0,5,1.4,9.4,4.1,13.1c4.5,5.4,10,8,16.5,8c3.7,0,7.1-1,10.3-3.2c4.7-2.6,10.8-7.3,18.4-14c2.2-1.5,8.8-8,19.7-19.2h0.1
			l-25.4,50.2c-3,1.6-7.8,4.2-14.6,7.7c-16.6,8-27.1,13.1-31.3,15.3c-16.4,7.6-24.6,15.9-24.6,24.8v1.4c0,4.5,2.1,9.1,6.3,13.7
			c7.2,7.5,16.8,11.2,28.6,11.2c15.2,0,28.9-6.6,41.1-19.7c3.4-4.1,6.2-7.9,8.3-11.4c1.5-2.7,9.5-18.4,24.2-47l8.6-5.3
			c7.6-4.8,16.7-11.5,27.3-20.2c6.2-5,13.3-11.7,21.4-19.8c2.3-2.2,3.4-3.5,3.4-4.1v-0.2C851.3,533,851,532.2,850.6,531.1z
			 M732.6,621.4c-4.3,4.3-7.7,7.3-10.2,8.8c-7.8,4.7-14.6,7-20.4,7h-0.7c-2,0-3.5-0.4-4.7-1.3c2.4-5,8-10.1,16.8-15
			c6.5-3.4,16.3-8.2,29.4-14.5C741.1,610.6,737.7,615.6,732.6,621.4z"/>
	</g>
	<path class="logo" d="M573,415.2c0.6-0.4,1.2-0.8,1.8-1.1c0.7-0.4,0.7-1,0-1.5c-0.6-0.4-1.2-0.8-1.9-1.2c-0.3-0.2-0.4-0.7-0.1-1
		c0.5-0.5,1.1-1,1.6-1.5c0.6-0.5,0.4-1.1-0.3-1.4c-0.7-0.3-1.3-0.5-2-0.8c-0.4-0.2-0.5-0.6-0.3-1c0.4-0.6,0.9-1.2,1.3-1.8
		c0.4-0.6,0.1-1.2-0.5-1.3c-0.7-0.1-1.5-0.2-2.2-0.4c-0.4-0.1-0.6-0.5-0.5-0.9c0.3-0.7,0.6-1.3,0.9-2c0.3-0.7-0.1-1.2-0.8-1.2
		c-0.7,0-1.5,0.1-2.2,0.1c-0.4,0-0.7-0.4-0.6-0.8c0.2-0.7,0.3-1.4,0.5-2.1c0.2-0.8-0.3-1.2-1-1c-0.7,0.2-1.4,0.3-2.1,0.5
		c-0.4,0.1-0.8-0.2-0.8-0.6c0-0.7,0.1-1.5,0.1-2.2c0-0.7-0.5-1.1-1.2-0.8c-0.7,0.3-1.3,0.6-2,0.9c-0.4,0.2-0.8-0.1-0.9-0.5
		c-0.1-0.7-0.2-1.4-0.3-2.1c-0.1-0.8-0.7-1.1-1.4-0.6c-0.6,0.4-1.1,0.8-1.7,1.2c-0.4,0.3-0.8,0.1-1-0.3c-0.3-0.7-0.5-1.3-0.8-2
		c-0.3-0.7-0.9-0.9-1.4-0.3c-0.5,0.5-1,1-1.5,1.6c-0.3,0.3-0.8,0.3-1-0.1c-0.4-0.6-0.8-1.2-1.2-1.9c-0.4-0.6-1-0.6-1.4,0
		c-0.4,0.6-0.8,1.3-1.2,1.9c-0.2,0.3-0.7,0.4-0.9,0.1c-0.5-0.5-1-1.1-1.5-1.6c-0.5-0.5-1.1-0.4-1.4,0.3c-0.3,0.7-0.5,1.4-0.8,2
		c-0.1,0.4-0.6,0.5-0.9,0.3c-0.6-0.4-1.2-0.9-1.8-1.3c-0.6-0.4-1.2-0.1-1.3,0.5c-0.1,0.7-0.2,1.5-0.4,2.2c-0.1,0.4-0.5,0.6-0.9,0.5
		c-0.7-0.3-1.3-0.6-2-0.9c-0.7-0.3-1.2,0-1.2,0.8c0,0.7,0.1,1.4,0.1,2.2c0,0.5-0.4,0.8-0.8,0.7c-0.7-0.2-1.4-0.3-2.1-0.5
		c-0.8-0.2-1.2,0.3-1,1c0.2,0.7,0.3,1.4,0.5,2.1c0.1,0.4-0.2,0.8-0.6,0.8c-0.7,0-1.5-0.1-2.2-0.1c-0.7,0-1.1,0.5-0.8,1.2
		c0.3,0.7,0.6,1.3,0.9,2c0.2,0.3-0.1,0.8-0.5,0.9c-0.7,0.1-1.5,0.2-2.2,0.4c-0.7,0.1-1,0.7-0.5,1.3c0.4,0.6,0.9,1.2,1.3,1.8
		c0.2,0.3,0.1,0.8-0.3,0.9c-0.7,0.3-1.4,0.5-2.1,0.8c-0.7,0.3-0.8,0.9-0.3,1.4c0.5,0.5,1.1,1,1.6,1.5c0.3,0.3,0.2,0.8-0.1,1
		c-0.6,0.4-1.3,0.8-1.9,1.2c-0.6,0.4-0.6,1,0,1.4c0.6,0.4,1.2,0.8,1.9,1.2c0.3,0.2,0.4,0.7,0.1,1c-0.5,0.5-1.1,1-1.6,1.5
		c-0.6,0.5-0.5,1.2,0.3,1.4c0.7,0.3,1.4,0.5,2,0.8c0.3,0.1,0.5,0.6,0.3,0.9c-0.4,0.6-0.9,1.3-1.4,1.9c-0.4,0.5-0.1,1.1,0.5,1.2
		c0.7,0.1,1.5,0.2,2.2,0.4c0.4,0.1,0.6,0.5,0.5,0.9c-0.3,0.7-0.6,1.3-0.9,2c-0.3,0.7,0,1.2,0.8,1.2c0.7,0,1.5,0,2.2-0.1
		c0.4,0,0.7,0.4,0.6,0.8c-0.2,0.7-0.3,1.4-0.5,2.1c-0.2,0.8,0.3,1.2,1,1c0.7-0.2,1.3-0.3,2-0.5c0.6-0.1,0.9,0.1,0.9,0.7
		c0,0.3,0,0.6,0,1c0,0,0,0,0,0c0,0.4,0,0.7,0,1.1c0,0.8,0.5,1.1,1.2,0.8c0.7-0.3,1.3-0.6,2-0.9c0.4-0.2,0.8,0.1,0.9,0.5
		c0.1,0.7,0.2,1.4,0.3,2.1c0.1,0.9,0.7,1.1,1.4,0.6c0.6-0.4,1.1-0.8,1.7-1.2c0.3-0.2,0.8-0.1,0.9,0.3c0.3,0.7,0.5,1.4,0.8,2.1
		c0.3,0.7,0.9,0.8,1.4,0.3c0.5-0.5,1-1.1,1.5-1.6c0.3-0.3,0.8-0.2,1,0.1c0.4,0.6,0.8,1.3,1.2,1.9c0.4,0.6,1,0.6,1.4,0
		c0.4-0.6,0.8-1.3,1.2-1.9c0.2-0.3,0.7-0.4,1-0.1c0.5,0.5,1,1.1,1.5,1.6c0.5,0.6,1.1,0.4,1.4-0.3c0.3-0.7,0.5-1.4,0.8-2
		c0.1-0.4,0.6-0.5,0.9-0.3c0.6,0.4,1.2,0.9,1.9,1.3c0.5,0.4,1.1,0.1,1.2-0.5c0.1-0.7,0.2-1.5,0.4-2.2c0.1-0.4,0.5-0.6,0.9-0.5
		c0.7,0.3,1.3,0.6,2,0.9c0.7,0.3,1.2,0,1.2-0.8c0-0.7-0.1-1.5-0.1-2.2c0-0.4,0.4-0.7,0.8-0.6c0.7,0.2,1.4,0.3,2.1,0.5
		c0.7,0.2,1.2-0.3,1-1c-0.2-0.7-0.3-1.4-0.5-2.1c-0.1-0.4,0.2-0.8,0.6-0.8c0.7,0,1.5,0.1,2.2,0.1c0.8,0,1.1-0.5,0.8-1.2
		c-0.3-0.7-0.6-1.3-0.9-2c-0.1-0.3,0.1-0.8,0.4-0.8c0.7-0.1,1.4-0.2,2.1-0.3c0.8-0.1,1.1-0.7,0.6-1.4c-0.4-0.6-0.8-1.1-1.2-1.7
		c-0.2-0.3-0.1-0.8,0.3-0.9c0.7-0.3,1.4-0.5,2-0.8c0.7-0.3,0.8-0.9,0.3-1.4c-0.5-0.5-1.1-1-1.6-1.5
		C572.6,415.9,572.6,415.4,573,415.2z"/>
	<path class="logo" d="M657.2,472.3c17.5-12.5,34-26.4,49.3-41.6c13.8-13.8,27.9-29.7,34.3-48.4c5-14.3,3.5-39.8-16.8-40.1
		c-17.5-0.2-43.5,13.5-50,27.3c-9,19.1,0.8,46.1-8.1,65.3c-1.6,3.5,3.6,6.5,5.2,3c6.5-14,20.5-34.5,28-48c10-18,12.7-27.2,25.6-37
		c1.4-1,8.4-3,10.6,3.3c3.1,8.5,2.3,17.9-0.9,26.1c-6.5,17-19.6,31.5-32.2,44.1c-14.8,14.9-31,28.4-48,40.6
		C651.1,469.4,654.1,474.6,657.2,472.3L657.2,472.3z"/>
	<path class="st3" d="M837,539c0,0,173-159.6-161-125.1"/>
</g>
</svg>
