<?xml version="1.0" standalone="no"?>
<!DOCTYPE svg PUBLIC "-//W3C//DTD SVG 20010904//EN"
 "http://www.w3.org/TR/2001/REC-SVG-20010904/DTD/svg10.dtd">
<svg version="1.0" xmlns="http://www.w3.org/2000/svg"
 width="230.000000pt" height="230.000000pt" viewBox="0 0 230.000000 230.000000"
 preserveAspectRatio="xMidYMid meet">
<metadata>
Created by potrace 1.11, written by Peter Selinger 2001-2013
</metadata>
<g transform="translate(0.000000,230.000000) scale(0.100000,-0.100000)"
fill="#000000" stroke="none">
<path d="M0 1150 l0 -1150 1150 0 1150 0 0 1150 0 1150 -1150 0 -1150 0 0
-1150z m1822 912 c129 -57 174 -153 129 -272 -43 -112 -200 -283 -375 -407
-86 -62 -88 -62 -117 -48 -16 9 -30 20 -30 25 -1 6 -2 14 -3 18 -1 5 44 43 99
84 177 134 292 265 331 378 8 23 12 46 9 51 -11 16 -111 10 -181 -12 -155 -47
-389 -193 -527 -327 -182 -178 -280 -364 -249 -471 17 -53 62 -91 236 -196
219 -133 295 -216 296 -324 0 -67 -36 -120 -119 -175 -211 -141 -590 -216
-744 -148 -52 23 -113 75 -133 113 -32 63 -4 142 64 182 30 18 34 18 58 2 35
-22 41 -45 18 -61 -42 -30 -65 -57 -56 -66 15 -15 160 -10 243 7 237 49 459
166 459 241 0 19 -13 33 -62 64 -224 140 -269 172 -329 232 -47 47 -79 90
-105 142 -35 72 -36 78 -32 159 4 70 10 96 40 158 101 213 345 439 623 579
149 75 244 102 342 96 40 -2 91 -13 115 -24z"/>
</g>
</svg>
